<?xml version="1.0" encoding="UTF-8"?>
<svg xmlns="http://www.w3.org/2000/svg" xmlns:xlink="http://www.w3.org/1999/xlink" viewBox="0 0 256 256" width="256px" height="256px">
<g id="surface121265966">
<path style=" stroke:none;fill-rule:nonzero;fill:rgb(96.470588%,59.215689%,59.215689%);fill-opacity:1;" d="M 20.058594 28.976562 L 41.925781 209.960938 C 42.699219 216.371094 47.273438 221.699219 53.523438 223.476562 L 123.664062 243.382812 C 126.5 244.1875 129.503906 244.207031 132.351562 243.4375 L 206.121094 223.453125 C 212.574219 221.703125 217.277344 216.183594 217.941406 209.566406 L 236.136719 28.820312 C 236.613281 24.097656 232.878906 20 228.101562 20 L 28.074219 20 C 23.234375 20 19.480469 24.203125 20.058594 28.976562 Z M 20.058594 28.976562 "/>
<path style=" stroke:none;fill-rule:nonzero;fill:rgb(97.647059%,72.549021%,68.235296%);fill-opacity:1;" d="M 228.101562 20 L 128 20 L 128 244 C 129.464844 244.007812 130.929688 243.820312 132.351562 243.4375 L 206.121094 223.453125 C 212.574219 221.703125 217.277344 216.183594 217.941406 209.566406 L 236.136719 28.820312 C 236.613281 24.097656 232.878906 20 228.101562 20 Z M 228.101562 20 "/>
<path style=" stroke:none;fill-rule:nonzero;fill:rgb(55.29412%,42.352942%,62.352943%);fill-opacity:1;" d="M 128.101562 248 C 126.238281 248 124.375 247.742188 122.566406 247.230469 L 52.429688 227.324219 C 44.609375 225.105469 38.925781 218.480469 37.949219 210.441406 L 16.085938 29.457031 C 15.671875 26.054688 16.742188 22.636719 19.015625 20.066406 C 21.3125 17.484375 24.613281 16 28.078125 16 L 228.105469 16 C 231.519531 16 234.792969 17.449219 237.078125 19.980469 C 239.347656 22.492188 240.460938 25.859375 240.121094 29.222656 L 221.921875 209.972656 C 221.089844 218.179688 215.160156 225.148438 207.160156 227.308594 L 133.398438 247.292969 C 131.664062 247.765625 129.882812 248 128.101562 248 Z M 28.078125 24 C 26.882812 24 25.792969 24.488281 25.007812 25.375 C 24.238281 26.242188 23.890625 27.351562 24.03125 28.496094 L 45.894531 209.480469 C 46.480469 214.308594 49.902344 218.292969 54.617188 219.628906 L 124.761719 239.535156 C 126.898438 240.140625 129.160156 240.15625 131.308594 239.574219 L 205.070312 219.59375 C 209.890625 218.289062 213.46875 214.101562 213.964844 209.171875 L 232.160156 28.421875 C 232.273438 27.289062 231.910156 26.195312 231.148438 25.34375 C 230.359375 24.476562 229.277344 24 228.101562 24 Z M 28.078125 24 "/>
<path style=" stroke:none;fill-rule:nonzero;fill:rgb(55.29412%,42.352942%,62.352943%);fill-opacity:1;" d="M 28 48 C 25.789062 48 24 46.210938 24 44 L 24 36 C 24 33.789062 25.789062 32 28 32 C 30.210938 32 32 33.789062 32 36 L 32 44 C 32 46.210938 30.210938 48 28 48 Z M 48 48 C 45.789062 48 44 46.210938 44 44 L 44 36 C 44 33.789062 45.789062 32 48 32 C 50.210938 32 52 33.789062 52 36 L 52 44 C 52 46.210938 50.210938 48 48 48 Z M 68 48 C 65.789062 48 64 46.210938 64 44 L 64 36 C 64 33.789062 65.789062 32 68 32 C 70.210938 32 72 33.789062 72 36 L 72 44 C 72 46.210938 70.210938 48 68 48 Z M 88 48 C 85.789062 48 84 46.210938 84 44 L 84 36 C 84 33.789062 85.789062 32 88 32 C 90.210938 32 92 33.789062 92 36 L 92 44 C 92 46.210938 90.210938 48 88 48 Z M 108 48 C 105.789062 48 104 46.210938 104 44 L 104 36 C 104 33.789062 105.789062 32 108 32 C 110.210938 32 112 33.789062 112 36 L 112 44 C 112 46.210938 110.210938 48 108 48 Z M 128 48 C 125.789062 48 124 46.210938 124 44 L 124 36 C 124 33.789062 125.789062 32 128 32 C 130.210938 32 132 33.789062 132 36 L 132 44 C 132 46.210938 130.210938 48 128 48 Z M 148 48 C 145.789062 48 144 46.210938 144 44 L 144 36 C 144 33.789062 145.789062 32 148 32 C 150.210938 32 152 33.789062 152 36 L 152 44 C 152 46.210938 150.210938 48 148 48 Z M 168 48 C 165.789062 48 164 46.210938 164 44 L 164 36 C 164 33.789062 165.789062 32 168 32 C 170.210938 32 172 33.789062 172 36 L 172 44 C 172 46.210938 170.210938 48 168 48 Z M 188 48 C 185.789062 48 184 46.210938 184 44 L 184 36 C 184 33.789062 185.789062 32 188 32 C 190.210938 32 192 33.789062 192 36 L 192 44 C 192 46.210938 190.210938 48 188 48 Z M 208 48 C 205.789062 48 204 46.210938 204 44 L 204 36 C 204 33.789062 205.789062 32 208 32 C 210.210938 32 212 33.789062 212 36 L 212 44 C 212 46.210938 210.210938 48 208 48 Z M 228 48 C 225.789062 48 224 46.210938 224 44 L 224 36 C 224 33.789062 225.789062 32 228 32 C 230.210938 32 232 33.789062 232 36 L 232 44 C 232 46.210938 230.210938 48 228 48 Z M 228 48 "/>
<path style=" stroke:none;fill-rule:nonzero;fill:rgb(98.039216%,93.725491%,87.058824%);fill-opacity:1;" d="M 188.070312 68 L 68 68 C 65.542969 68 63.667969 70.191406 64.050781 72.621094 L 74.132812 136.625 C 74.441406 138.566406 76.117188 140 78.085938 140 L 155.324219 140 C 157.71875 140 159.574219 142.09375 159.296875 144.46875 L 156.21875 170.5 L 128.375 178.988281 L 103.789062 170.660156 L 102.011719 159.375 C 101.703125 157.433594 100.027344 156 98.058594 156 L 81.863281 156 C 79.40625 156 77.53125 158.195312 77.910156 160.625 L 81.96875 186.378906 C 82.195312 187.828125 83.207031 189.03125 84.601562 189.5 L 126.8125 203.796875 C 127.214844 203.933594 127.632812 204 128.050781 204 C 128.433594 204 128.8125 203.945312 129.179688 203.832031 L 175.753906 189.640625 C 177.246094 189.183594 178.335938 187.882812 178.515625 186.332031 L 186.296875 120.472656 C 186.578125 118.09375 184.722656 116 182.328125 116 L 98.601562 116 C 96.632812 116 94.957031 114.566406 94.648438 112.625 L 92.128906 96.625 C 91.742188 94.195312 93.621094 92 96.078125 92 L 186.109375 92 C 188.136719 92 189.84375 90.484375 190.078125 88.46875 L 191.980469 72.390625 C 192.257812 70.054688 190.429688 68 188.070312 68 Z M 188.070312 68 "/>
<path style=" stroke:none;fill-rule:nonzero;fill:rgb(55.29412%,42.352942%,62.352943%);fill-opacity:1;" d="M 128.054688 208 C 127.210938 208 126.371094 207.863281 125.558594 207.59375 L 83.320312 193.289062 C 80.515625 192.34375 78.484375 189.9375 78.019531 187.007812 L 73.960938 161.242188 C 73.597656 158.933594 74.261719 156.585938 75.78125 154.804688 C 77.304688 153.023438 79.519531 152.003906 81.863281 152.003906 L 98.0625 152.003906 C 102.027344 152.003906 105.351562 154.847656 105.96875 158.765625 L 107.367188 167.652344 L 128.449219 174.789062 L 152.5625 167.441406 L 155.324219 144 L 78.085938 144 C 74.121094 144 70.796875 141.15625 70.179688 137.238281 L 60.097656 73.238281 C 59.730469 70.933594 60.394531 68.585938 61.914062 66.804688 C 63.441406 65.019531 65.65625 64 68 64 L 188.074219 64 C 190.335938 64 192.496094 64.96875 194 66.660156 C 195.503906 68.347656 196.214844 70.609375 195.953125 72.859375 L 194.050781 88.941406 C 193.578125 92.964844 190.164062 96 186.109375 96 L 96.078125 96 L 98.605469 112 L 182.332031 112 C 184.617188 112 186.796875 112.980469 188.3125 114.6875 C 189.828125 116.390625 190.546875 118.671875 190.277344 120.941406 L 182.496094 186.800781 C 182.125 189.9375 179.9375 192.550781 176.914062 193.46875 L 130.351562 207.664062 C 129.609375 207.886719 128.835938 208 128.054688 208 Z M 81.863281 160 L 85.925781 185.757812 L 128.097656 200.007812 L 174.589844 185.808594 L 182.328125 120 L 98.597656 120 C 94.632812 120 91.308594 117.15625 90.691406 113.238281 L 88.171875 97.242188 C 87.808594 94.933594 88.472656 92.585938 89.992188 90.804688 C 91.515625 89.023438 93.730469 88.003906 96.074219 88.003906 L 186.109375 88.003906 L 188 72 L 68 72 L 78.085938 136 L 155.324219 136 C 157.609375 136 159.789062 136.980469 161.304688 138.6875 C 162.820312 140.390625 163.539062 142.671875 163.269531 144.941406 L 160.191406 170.972656 C 160.003906 172.550781 158.902344 173.867188 157.386719 174.328125 L 129.542969 182.816406 C 128.738281 183.0625 127.882812 183.050781 127.097656 182.78125 L 102.507812 174.453125 C 101.097656 173.976562 100.070312 172.757812 99.835938 171.285156 L 98.058594 160 Z M 159.996094 219.222656 C 158.234375 219.222656 156.621094 218.050781 156.140625 216.273438 C 155.558594 214.140625 156.820312 211.945312 158.953125 211.363281 L 166.953125 209.195312 C 169.089844 208.613281 171.285156 209.875 171.859375 212.007812 C 172.441406 214.140625 171.179688 216.335938 169.046875 216.914062 L 161.046875 219.085938 C 160.695312 219.179688 160.34375 219.222656 159.996094 219.222656 Z M 128.097656 228.011719 L 106.902344 221.996094 C 104.78125 221.394531 103.542969 219.179688 104.152344 217.054688 C 104.753906 214.933594 106.957031 213.6875 109.09375 214.304688 L 128.144531 219.710938 L 142.953125 215.703125 C 145.089844 215.113281 147.285156 216.382812 147.859375 218.515625 C 148.441406 220.648438 147.179688 222.847656 145.046875 223.425781 Z M 128.097656 228.011719 "/>
<path style=" stroke:none;fill-rule:nonzero;fill:rgb(98.039216%,93.725491%,87.058824%);fill-opacity:1;" d="M 202 92 L 206.953125 101.046875 L 216 106 L 206.953125 110.953125 L 202 120 L 197.046875 110.953125 L 188 106 L 197.046875 101.046875 Z M 190.007812 188 L 193.511719 194.441406 L 200 198.007812 L 193.511719 201.511719 L 190.007812 208 L 186.441406 201.511719 L 180 198.007812 L 186.441406 194.441406 Z M 49.992188 140 L 52.109375 143.847656 L 55.957031 145.992188 L 52.109375 148.109375 L 49.992188 152 L 47.847656 148.109375 L 44 145.992188 L 47.847656 143.847656 Z M 49.992188 140 "/>
</g>
</svg>
